# xmcd CD database file
#
# Track frame offsets:
#	150
#	30387
#	60912
#	84502
#	110567
#	141307
#	177580
#	198475
#	226865
#	246787
#
# Disc length: 3966 seconds
#
# Revision: 0
# Processed by: cddbd v1.5.2PL0 Copyright (c) Steve Scherf et al.
# Submitted via: CDex 1.70beta2
#
DISCID=800f7c0a
DTITLE=朝本千可 - Keep On Movin'
DYEAR=2006
DGENRE=Jazz
TTITLE0=Keep On Movin'
TTITLE1=Deep Blue
TTITLE2=Frangipani
TTITLE3=Skindo Le Le
TTITLE4=Can You Stop The Rain
TTITLE5=Never Gonna Give You Up
TTITLE6=Tell Me Why
TTITLE7=Dolphin Blue
TTITLE8=Don't Know Why
TTITLE9=Avarage 8'
EXTD=YEAR: 2006
EXTT0=
EXTT1=
EXTT2=
EXTT3=
EXTT4=
EXTT5=
EXTT6=
EXTT7=
EXTT8=
EXTT9=
PLAYORDER=
